<svg xmlns="http://www.w3.org/2000/svg" xmlns:xlink="http://www.w3.org/1999/xlink" version="1.1" x="0px" y="0px" viewBox="0 0 100 100" style="enable-background:new 0 0 100 100;" xml:space="preserve"><rect x="5" y="43.75" width="5" height="5"></rect><rect x="5" y="36.25" width="5" height="5"></rect><rect x="5" y="28.75" width="5" height="5"></rect><rect x="5" y="21.25" width="5" height="5"></rect><rect x="5" y="73.75" width="5" height="5"></rect><rect x="5" y="66.25" width="5" height="5"></rect><rect x="5" y="58.75" width="5" height="5"></rect><rect x="5" y="51.25" width="5" height="5"></rect><rect x="28.75" y="5" width="5" height="5"></rect><rect x="21.25" y="5" width="5" height="5"></rect><rect x="51.25" y="5" width="5" height="5"></rect><rect x="43.75" y="5" width="5" height="5"></rect><rect x="36.25" y="5" width="5" height="5"></rect><rect x="73.75" y="5" width="5" height="5"></rect><rect x="66.25" y="5" width="5" height="5"></rect><rect x="58.75" y="5" width="5" height="5"></rect><rect x="90" y="28.75" width="5" height="5"></rect><rect x="90" y="21.25" width="5" height="5"></rect><rect x="90" y="43.75" width="5" height="5"></rect><rect x="90" y="36.25" width="5" height="5"></rect><rect x="90" y="73.75" width="5" height="5"></rect><rect x="90" y="66.25" width="5" height="5"></rect><rect x="90" y="58.75" width="5" height="5"></rect><rect x="90" y="51.25" width="5" height="5"></rect><rect x="51.25" y="90" width="5" height="5"></rect><rect x="43.75" y="90" width="5" height="5"></rect><rect x="36.25" y="90" width="5" height="5"></rect><rect x="58.75" y="90" width="5" height="5"></rect><rect x="28.75" y="90" width="5" height="5"></rect><rect x="21.25" y="90" width="5" height="5"></rect><rect x="73.75" y="90" width="5" height="5"></rect><rect x="66.25" y="90" width="5" height="5"></rect><path d="M21.25,86.25h57.5c4.136,0,7.5-3.364,7.5-7.5v-57.5c0-4.136-3.364-7.5-7.5-7.5h-57.5c-4.136,0-7.5,3.364-7.5,7.5v57.5  C13.75,82.886,17.114,86.25,21.25,86.25z M18.75,21.25c0-1.378,1.122-2.5,2.5-2.5h57.5c1.378,0,2.5,1.122,2.5,2.5v57.5  c0,1.378-1.122,2.5-2.5,2.5h-57.5c-1.378,0-2.5-1.122-2.5-2.5V21.25z"></path><path d="M71.25,28.75h-42.5v42.5h42.5V28.75z M66.25,66.25h-32.5v-32.5h32.5V66.25z"></path></svg>