<?xml version="1.0" encoding="UTF-8"?>
<svg width="100pt" height="100pt" version="1.1" viewBox="0 0 100 100" xmlns="http://www.w3.org/2000/svg">
 <path d="m65.801 49.738s9.6875-7.8047 31.297-5.2148c-1.4727-11.789-7.2734-22.23-15.777-29.676-6.4883 1.6602-17.281 6.4844-26.984 20.508 0 0-4.4336-11.629 4.7148-31.383-2.8789-0.54688-5.8477-0.84375-8.8828-0.84375-8.8516 0-17.133 2.4375-24.219 6.6719-0.42969 6.6797 0.81641 18.445 11.164 32.016 0 0-12.43 0.62109-28.395-14.188-3.7305 6.7656-5.8594 14.539-5.8594 22.809 0 3.6016 0.41406 7.1055 1.1797 10.477 6.2227 2.4727 17.793 4.918 33.895-0.72656 0 0-3.25 12.008-22.254 22.613 7.7148 8.2148 18.32 13.672 30.199 14.738 4.2734-5.1562 10.172-15.402 9.7812-32.457 0 0 10.422 6.8047 14.633 28.164 10.441-4.9141 18.789-13.531 23.355-24.168-3.5703-5.6523-11.496-14.438-27.848-19.34z"/>
</svg>
