<svg xmlns="http://www.w3.org/2000/svg" xmlns:xlink="http://www.w3.org/1999/xlink" version="1.1" x="0px" y="0px" viewBox="0 0 100 100" enable-background="new 0 0 100 100" xml:space="preserve"><path d="M87.5,27.5h-75v-5H5v5h2.5V80h5v-7.5h15V80H70v-7.5h17.5c4.1,0,7.5-3.4,7.5-7.5V35C95,30.9,91.6,27.5,87.5,27.5z M35,75  h-2.5v-2.5H35V75z M42.5,75H40v-2.5h2.5V75z M50,75h-2.5v-2.5H50V75z M57.5,75H55v-2.5h2.5V75z M65,75h-2.5v-2.5H65V75z M90,65  c0,1.4-1.1,2.5-2.5,2.5h-75v-35h75c1.4,0,2.5,1.1,2.5,2.5V65z"></path><path d="M80,36.3c-3.4,0-6.3,2.8-6.3,6.3s2.8,6.3,6.3,6.3s6.3-2.8,6.3-6.3S83.4,36.3,80,36.3z M80,43.8c-0.7,0-1.3-0.6-1.3-1.3  s0.6-1.3,1.3-1.3s1.3,0.6,1.3,1.3S80.7,43.8,80,43.8z"></path><path d="M80,51.3c-3.4,0-6.3,2.8-6.3,6.3s2.8,6.3,6.3,6.3s6.3-2.8,6.3-6.3S83.4,51.3,80,51.3z M80,58.8c-0.7,0-1.3-0.6-1.3-1.3  s0.6-1.3,1.3-1.3s1.3,0.6,1.3,1.3S80.7,58.8,80,58.8z"></path><path d="M55,35c-4.4,0-8.4,1.9-11.1,5H16.3v20h27.6c2.7,3.1,6.7,5,11.1,5c8.3,0,15-6.7,15-15S63.3,35,55,35z M23.8,55h-2.5V45h2.5  V55z M31.3,55h-2.5V45h2.5V55z M40.9,55h-4.6V45h4.6c-0.6,1.6-0.9,3.2-0.9,5S40.3,53.4,40.9,55z M55,60c-5.5,0-10-4.5-10-10  s4.5-10,10-10s10,4.5,10,10S60.5,60,55,60z"></path></svg>