<?xml version="1.0" encoding="UTF-8"?>
<svg width="100pt" height="100pt" version="1.1" viewBox="0 0 100 100" xmlns="http://www.w3.org/2000/svg">
 <g>
  <path d="m63.301 62.301v-46.5c0-7.3984-6-13.301-13.301-13.301-7.3984 0-13.301 6-13.301 13.301v46.5c-4.3008 3.8008-6.8008 9.1992-6.8008 15 0 11.102 9 20.102 20.102 20.102s20.102-9 20.102-20.102c0-5.6992-2.5-11.199-6.8008-15zm-13.301 30.301c-8.3984 0-15.199-6.8008-15.199-15.199 0-5.1016 2.6016-9.8984 6.8008-12.699v-48.898c0-4.6992 3.8008-8.5 8.5-8.5 4.6992 0 8.3984 3.8008 8.3984 8.5v48.898c4.1992 2.8008 6.8008 7.5 6.8008 12.699-0.10156 8.3984-6.9023 15.199-15.301 15.199z"/>
  <path d="m53.602 67.699v-10.898c0-2-1.6016-3.6016-3.6016-3.6016s-3.6016 1.6016-3.6016 3.6016v10.898c-4 1.5-6.8008 5.3008-6.8008 9.6992 0 5.6992 4.6016 10.398 10.398 10.398 5.6992 0 10.398-4.6016 10.398-10.398 0.003907-4.5-2.8945-8.2969-6.793-9.6992z"/>
 </g>
</svg>
